<svg xmlns="http://www.w3.org/2000/svg" xmlns:xlink="http://www.w3.org/1999/xlink" width="30" height="30" viewBox="0 0 30 30"><defs><path id="rqrpa" d="M467.33 2192h27.2c.73 0 1.32.6 1.32 1.33v27.34c0 .73-.6 1.33-1.33 1.33h-27.2c-.73 0-1.32-.6-1.32-1.33v-27.34c0-.73.6-1.33 1.33-1.33z"/><path id="rqrpb" d="M476.71 2206.8a.3.3 0 0 0-.07.16v.04c0 .08.03.15.08.2v.03h.04l3.63 3.32c.12.13.33.13.45 0a.33.33 0 0 0 0-.46l-3.03-2.77h7.76a.33.33 0 0 0 0-.66h-7.76l3.03-2.77a.33.33 0 0 0 0-.46.32.32 0 0 0-.45 0l-3.61 3.29-.01.01-.04.02-.02.05z"/></defs><g><g transform="translate(-466 -2192)"><use fill="#fff" xlink:href="#rqrpa"/></g><g transform="translate(-466 -2192)"><use fill="#4b4f53" xlink:href="#rqrpb"/></g></g></svg>