<svg xmlns="http://www.w3.org/2000/svg" xmlns:xlink="http://www.w3.org/1999/xlink" width="30" height="30" viewBox="0 0 30 30"><defs><path id="vo9wa" d="M1386.48 2192h27.2c.73 0 1.32.6 1.32 1.33v27.34c0 .73-.6 1.33-1.33 1.33h-27.2c-.73 0-1.32-.6-1.32-1.33v-27.34c0-.73.6-1.33 1.33-1.33z"/><path id="vo9wb" d="M1404.95 2206.8c.04.04.07.1.07.16v.04c0 .08-.03.15-.08.2v.03h-.02-.02l-3.62 3.32a.32.32 0 0 1-.46 0 .33.33 0 0 1 0-.46l3.03-2.77h-7.76a.33.33 0 0 1 0-.66h7.76l-3.03-2.77a.33.33 0 0 1 0-.46.32.32 0 0 1 .46 0l3.6 3.29.02.01.03.02c.02.01.01.03.02.05z"/></defs><g><g transform="translate(-1385 -2192)"><use fill="#fff" xlink:href="#vo9wa"/></g><g transform="translate(-1385 -2192)"><use fill="#383434" xlink:href="#vo9wb"/></g></g></svg>